<?xml version="1.0" encoding="UTF-8" standalone="no"?>
<!-- Created with Inkscape (http://www.inkscape.org/) -->

<svg
   version="1.1"
   id="svg1"
   width="1310.72"
   height="1310.72"
   viewBox="0 0 1310.72 1310.72"
   xmlns="http://www.w3.org/2000/svg"
   xmlns:svg="http://www.w3.org/2000/svg">
  <defs
     id="defs1" />
  <g
     id="g1">
    <path
       d="M -22.626953,-22.626953 V 1332.1895 H 1337.8457 V -22.626953 Z"
       style="baseline-shift:baseline;display:inline;overflow:visible;vector-effect:none;fill:#1d3b7b;fill-opacity:1;enable-background:accumulate;stop-color:#000000;stop-opacity:1"
       id="path2" />
    <path
       style="fill:#ffffff"
       d="m 187.84,1193.3822 -2.08,-0.094 -3.68,-0.3299 -3.68,-0.3299 -4,-0.6735 -4,-0.6735 -3.85469,-1.0539 -3.85469,-1.0538 -3.02531,-1.1851 -3.02531,-1.1852 -2.79745,-1.4326 -2.79745,-1.4326 -2.64255,-1.7658 -2.64255,-1.7657 -2.6974,-2.2832 -2.6974,-2.2831 -2.51856,-2.88 -2.51855,-2.88 -2.02674,-3.04 -2.02673,-3.04 -1.62122,-3.04 -1.62121,-3.04 -1.25771,-3.04 -1.25771,-3.04 -1.3131,-4 -1.3131,-4 -0.95662,-4 -0.95662,-4 -0.78811,-4.32 -0.7881,-4.32 -0.65488,-5.76 -0.65487,-5.76 -0.38684,-4.64 -0.38684,-4.64 -0.1074,-130.80002 -0.1074,-130.8 H 95.191443 73.279998 l 0.005,-9.2 0.005,-9.2 2.946167,-1.92 2.946166,-1.92 3.688813,-2.68002 3.688813,-2.68001 3.68,-3.05151 3.68,-3.05152 6.256603,-6.26847 6.25661,-6.26847 3.45234,-4.16 3.45233,-4.16 3.24419,-4.32 3.2442,-4.32 3.57115,-5.34386 3.57115,-5.34387 3.51637,-5.85613 3.51637,-5.85614 3.42084,-6.24 3.42084,-6.24 4.75429,-9.6 4.7543,-9.6 4.12608,-9.12 4.12608,-9.12 2.50682,-5.84 2.50683,-5.84 h 10.38689 10.38688 l -0.19402,10.16 -0.19401,10.16 -0.16317,34.24 -0.16318,34.24 -0.19885,12.4 -0.19885,12.4 h 45.32046 45.32045 v 16.8 16.8 h -45.28 H 183.36 l 0.004,116.24 0.004,116.24002 0.3192,8.7915 0.31919,8.7915 0.49068,5.6085 0.49067,5.6085 0.4914,3.36 0.4914,3.36 0.80251,3.84 0.8025,3.84 0.97235,3.04 0.97236,3.04 1.21832,2.6382 1.21832,2.6382 1.48239,2.2094 1.48238,2.2095 2.13912,2.0651 2.13913,2.0652 1.83936,1.1766 1.83937,1.1766 2.36445,0.9468 2.36445,0.9468 2.65786,0.6348 2.65786,0.6348 4.01832,0.3684 4.01833,0.3684 3.97233,-0.2073 3.97234,-0.2073 3.38601,-0.4753 3.38601,-0.4753 2.88165,-0.7858 2.88165,-0.7859 2.06794,-0.8411 2.06793,-0.8412 2.09207,-1.0567 2.09206,-1.0567 2.88,-1.9109 2.88,-1.911 3.04,-2.5583 3.04,-2.5583 5.76,-5.9183 5.76,-5.9184 2.24,-2.5886 2.24,-2.5887 0.37985,0.063 0.37984,0.063 7.22016,6.0681 7.22015,6.0681 v 0.2607 0.2607 l -4.69421,6.4712 -4.69421,6.4712 -3.36357,4.48 -3.36357,4.48 -3.62608,4.5633 -3.62609,4.5633 -3.31528,3.7567 -3.31528,3.7567 -3.98541,3.8734 -3.9854,3.8734 -3.20048,2.5497 -3.20048,2.5497 -2.69497,1.7825 -2.69497,1.7826 -2.95351,1.6303 -2.9535,1.6303 -3.28649,1.4029 -3.2865,1.4029 -3.52217,1.1379 -3.52218,1.1379 -3.51782,0.8072 -3.51782,0.8071 -4.48,0.6417 -4.48,0.6417 -5.50764,0.3344 -5.50763,0.3344 -3.29237,-0.062 -3.29236,-0.062 z m 296.31999,0 -2.72,-0.085 -6.24,-0.35 -6.24,-0.35 -6.4,-0.6312 -6.4,-0.6312 -4.64,-0.6436 -4.64,-0.6437 -4.76931,-0.7996 -4.7693,-0.7997 -5.47069,-1.1234 -5.4707,-1.1235 -4.64,-1.1291 -4.64,-1.1291 -7.04,-2.0304 -7.04,-2.0304 -5.28,-1.814 -5.28,-1.814 -5.92,-2.3316 -5.92,-2.3316 -4.35239,-1.9315 -4.3524,-1.9315 -6.12479,-3.0656 -6.1248,-3.0656 -0.0993,-232.55982 -0.0993,-232.5598 -0.39988,-2.88 -0.39989,-2.88 -0.77469,-3.47817 -0.7747,-3.47817 -1.28184,-2.64828 -1.28184,-2.64828 -1.61102,-1.7627 -1.61101,-1.76271 -1.52439,-0.9782 -1.5244,-0.9782 -2.23168,-0.84304 -2.23169,-0.84304 -3.04,-0.60335 -3.04,-0.60334 -6.33282,-0.38164 -6.33282,-0.38164 -7.58718,0.38485 -7.58718,0.38484 -3.68,0.46764 -3.68,0.46764 -0.24414,0.003 -0.24415,0.003 0.0841,-11.09767 0.0841,-11.09766 51.68,-14.0213 51.68,-14.0213 10.16,-0.001 10.16,-10e-4 v 122.39999 122.4 l 1.36,-0.006 1.36,-0.006 1.92,-2.29918 1.92,-2.29917 4.82605,-5.29479 4.82606,-5.29478 4.4982,-4.3452 4.49821,-4.3452 3.79574,-3.34838 3.79574,-3.34839 3.36,-2.73968 3.36,-2.73968 3.99004,-2.94615 3.99004,-2.94615 4.64996,-2.98338 4.64996,-2.98338 4,-2.23593 4,-2.23593 2.94199,-1.47544 2.94199,-1.47544 4.544,-1.94364 4.54401,-1.94363 5.634,-1.89162 5.63401,-1.89161 4.46155,-1.12646 4.46155,-1.12647 4.81845,-0.80082 4.81845,-0.80081 2.88,-0.34075 2.88,-0.34075 7.55586,-0.18847 7.55586,-0.18848 4.60414,0.38304 4.60414,0.38304 4,0.60393 4,0.60394 3.81138,0.82452 3.81139,0.82452 3.22861,0.94405 3.22862,0.94405 2.72,0.9263 2.72,0.9263 3.65486,1.50035 3.65487,1.50034 4.02513,2.05167 4.02514,2.05166 3.60413,2.17207 3.60413,2.17206 3.91587,2.7942 3.91587,2.79419 2.72,2.26667 2.72,2.26666 3.74777,3.5114 3.74778,3.5114 3.31687,3.74774 3.31687,3.74774 2.55395,3.2 2.55395,3.2 2.24627,3.2 2.24626,3.2 1.54842,2.4 1.54841,2.4 1.59379,2.72 1.59379,2.72 2.22024,4.16 2.22024,4.16 1.77524,3.84 1.77525,3.84 1.58589,3.84 1.58589,3.84 2.07378,5.92 2.07379,5.92 1.40404,4.8869 1.40404,4.8869 0.95317,3.9131 0.95317,3.9131 0.99462,4.8 0.99463,4.8 0.92581,5.92 0.92581,5.92 0.50022,4.32 0.50022,4.32 0.4997,5.92 0.4997,5.92 0.1815,12.16 0.18149,12.16 -0.37243,7.68 -0.37243,7.68 -0.4785,5.59997 -0.47851,5.6 -0.64162,5.44 -0.64162,5.44 -0.81462,5.28 -0.81462,5.28 -1.25276,6.2582 -1.25276,6.2582 -1.2961,5.2618 -1.2961,5.2618 -0.96942,3.36 -0.96941,3.36 -1.93763,5.92 -1.93762,5.92 -1.99832,5.12 -1.99831,5.12 -1.8369,4.16 -1.83691,4.16 -2.34536,4.64 -2.34535,4.64 -2.88836,5.0415 -2.88836,5.0416 -2.93124,4.3985 -2.93124,4.3985 -3.60096,4.7999 -3.60096,4.8 -3.31431,3.84 -3.31431,3.84 -3.64567,3.7587 -3.64568,3.7587 -3.81563,3.4311 -3.81563,3.4311 -4.50854,3.604 -4.50853,3.604 -4.67293,3.1678 -4.67292,3.1678 -3.84,2.322 -3.84,2.322 -5.12,2.6607 -5.12,2.6607 -3.36,1.4922 -3.36,1.4922 -4.64,1.8482 -4.64,1.8482 -5.92,1.9257 -5.92,1.9258 -6.501,1.6293 -6.501,1.6293 -5.019,0.9394 -5.019,0.9395 -4.8,0.6587 -4.8,0.6586 -4.96,0.479 -4.96,0.4791 -7.04,0.32 -7.04,0.3201 -4.64,-0.062 -4.64,-0.062 z m 30.88,-32.7597 4.8,-0.325 4.23741,-0.645 4.23741,-0.6449 4.40259,-1.0844 4.40259,-1.0845 3.30026,-1.1523 3.30027,-1.1524 3.35004,-1.4671 3.35004,-1.4672 3.90969,-2.2344 3.9097,-2.2344 3.04,-2.1686 3.04,-2.1686 3.57625,-3.0787 3.57625,-3.0786 2.87824,-3.1195 2.87824,-3.1195 2.31419,-2.88 2.31419,-2.88 2.94705,-4.48 2.94705,-4.48 1.44313,-2.56 1.44314,-2.56 1.68592,-3.36 1.68591,-3.36 1.58665,-3.68 1.58664,-3.68 1.54644,-4.1783 1.54644,-4.1783 1.48518,-4.7817 1.48518,-4.7817 1.41248,-5.7127 1.41247,-5.7126 0.96104,-4.8474 0.96105,-4.8473 0.6397,-4 0.63971,-4 0.63062,-4.8 0.63061,-4.8 0.48907,-5.28 0.48908,-5.28 0.39794,-5.44 0.39795,-5.44 0.006,-17.92 0.006,-17.92002 -0.41759,-5.76 -0.41758,-5.76 -0.62691,-6.24 -0.62692,-6.24 -0.48999,-3.68 -0.49,-3.68 -0.9637,-5.6 -0.96369,-5.6 -0.95219,-4.32 -0.95218,-4.32 -1.27455,-4.70456 -1.27456,-4.70456 -1.56715,-4.63454 -1.56715,-4.63453 -1.48467,-3.71085 -1.48467,-3.71086 -1.6871,-3.59005 -1.68709,-3.59005 -2.0237,-3.52 -2.0237,-3.52 -2.27246,-3.35737 -2.27245,-3.35737 -2.1782,-2.72263 -2.17819,-2.72263 -3.58181,-3.62645 -3.5818,-3.62646 -2.72,-2.17068 -2.72,-2.17068 -3.14049,-2.10791 -3.14049,-2.1079 -3.73951,-1.90607 -3.73951,-1.90606 -3.2,-1.26966 -3.2,-1.26966 -2.72,-0.82428 -2.72,-0.82428 -2.88,-0.67242 -2.88,-0.67242 -4,-0.61923 -4,-0.61923 -6.04634,-0.37224 -6.04635,-0.37223 -5.2255,0.37297 -5.2255,0.37297 -3.73535,0.63859 -3.73535,0.63859 -3.3928,0.82632 -3.39281,0.82631 -3.91636,1.26678 -3.91635,1.26677 -3.82312,1.57153 -3.82312,1.57152 -3.94053,1.97166 -3.94052,1.97166 -3.84,2.24953 -3.84,2.24953 -4.16,2.82349 -4.16,2.82348 -3.81615,3.03822 -3.81614,3.03822 -4.13182,3.73926 -4.13181,3.73927 -3.3901,3.71059 -3.3901,3.7106 -1.86194,2.34096 -1.86194,2.34097 v 111.17699 111.177 l 2.2983,2.642 2.29829,2.6421 3.87533,3.84 3.87533,3.84 3.50638,2.8159 3.50637,2.816 2.72,1.8644 2.72,1.8644 2.56,1.5143 2.56,1.5143 3.36,1.6863 3.36,1.6862 2.74694,1.1356 2.74693,1.1355 3.42639,1.1464 3.42638,1.1464 3.78146,0.9591 3.78147,0.9592 4.60521,0.7775 4.60522,0.7775 4,0.3472 4,0.3471 1.76,0.094 1.76,0.094 3.52,0.054 3.52,0.054 z m 222.23999,13.517 v -11.4579 l 9.36,-0.3866 9.36,-0.3865 3.84,-0.4879 3.84,-0.4878 3.01877,-0.6294 3.01876,-0.6293 3.11179,-1.0654 3.11179,-1.0654 2.47014,-1.413 2.47014,-1.4129 2.02849,-1.8585 2.02849,-1.8584 1.56129,-2.3343 1.56128,-2.3343 1.00347,-2.4105 1.00346,-2.4104 0.80844,-3.198 0.80845,-3.1981 0.46505,-3.3188 0.46505,-3.3187 0.34976,-5.12 0.34977,-5.12 -0.10608,-211.36002 -0.10609,-211.36 -0.56096,-3.68 -0.56096,-3.68 -0.79157,-2.99387 -0.79158,-2.99388 -1.27752,-2.44612 -1.27753,-2.44613 -1.27712,-1.48627 -1.27712,-1.48628 -1.78149,-1.18248 -1.78149,-1.18249 -2.56005,-0.9343 -2.56004,-0.9343 -2.94239,-0.55694 -2.9424,-0.55693 -10.56,0.01 -10.56,0.01 -7.04,0.55719 -7.04,0.55719 -0.72426,0.1602 -0.72427,0.16019 0.0843,-10.78546 0.0843,-10.78545 52,-14.01166 52,-14.01167 10.64,-0.01 10.64,-0.01 v 176.49293 176.49294 l 2.54092,-0.0929 2.54093,-0.0929 34.65907,-34.37594 34.65908,-34.37593 19.78814,-19.70406 19.78814,-19.70407 2.05682,-2.72 2.05683,-2.72 1.40271,-2.72 1.40272,-2.72 0.69928,-2.24 0.69928,-2.24 0.17552,-3.21197 0.17553,-3.21197 -0.50893,-1.74803 -0.50893,-1.74803 -0.98969,-1.3443 -0.98969,-1.3443 -1.93071,-1.28927 -1.9307,-1.28928 -2.93316,-0.93168 -2.93316,-0.93168 -3.2,-0.51547 -3.2,-0.51547 -3.52,-0.30294 -3.52,-0.30293 -6.48,-0.22023 -6.48,-0.22022 V 819.1561 807.35998 h 86.24005 86.24 v 11.84 11.84 l -1.84,0.004 -1.84,0.004 -6.1885,0.31257 -6.1884,0.31257 -2.9316,0.34289 -2.9315,0.34289 -3.84,0.63304 -3.84,0.63305 -4.1803,1.09101 -4.1803,1.09102 -3.4997,1.26091 -3.4997,1.26091 -2.72,1.17344 -2.72,1.17343 -3.84,2.01822 -3.84,2.01821 -3.04,1.84197 -3.04,1.84197 -4.2809,2.86441 -4.2808,2.86441 -4.2975,3.18665 -4.2975,3.18664 -3.7416,2.92913 -3.7417,2.92912 -6.08,4.97913 -6.08,4.97913 -11.04,9.46853 -11.04005,9.46852 -17.14168,15.01376 -17.14167,15.01377 -19.72179,16.16 -19.7218,16.16 0.89944,0.96 0.89945,0.96 74.18268,83.52002 74.18272,83.52 7.7013,7.6995 7.7014,7.6995 2.88,2.4081 2.88,2.4081 3.248,2.4116 3.248,2.4116 2.7429,1.6568 2.7429,1.6568 2.9691,1.4062 2.9691,1.4063 3.36,1.1196 3.36,1.1197 3.3161,0.6715 3.3161,0.6715 4.2603,0.4488 4.2604,0.4488 7.2235,0.2264 7.2236,0.2265 v 11.4713 11.4714 H 1056 967.67998 v -11.4761 -11.4762 l 6.48,-0.2286 6.48,-0.2287 3.84,-0.4453 3.84,-0.4453 2.50385,-0.6429 2.50384,-0.6429 1.60993,-0.8763 1.60993,-0.8762 0.91712,-1.1126 0.91712,-1.1127 0.37595,-1.6799 0.37594,-1.6799 -0.39541,-2.4512 -0.39542,-2.4511 -0.58498,-1.7003 -0.58498,-1.7003 -1.16326,-2.3179 -1.16325,-2.3178 -1.13429,-1.7089 -1.1343,-1.7089 -63.99697,-72.56 -63.99697,-72.56002 -2.54527,-0.0932 -2.54527,-0.0932 0.1231,66.97312 0.12309,66.9732 0.38114,3.04 0.38114,3.04 0.47817,2.7954 0.47816,2.7955 0.80366,2.8045 0.80366,2.8046 1.11602,2.3716 1.11601,2.3716 1.42551,1.9976 1.42551,1.9977 1.74084,1.5516 1.74084,1.5516 2.18492,1.3019 2.18492,1.3018 2.4,0.9878 2.4,0.9878 4,0.9815 4,0.9816 3.68,0.484 3.68,0.484 4.16,0.3087 4.16,0.3087 7.12,0.2189 7.12,0.2188 v 11.4764 11.4764 h -90.72 -90.72 z"
       id="path1" />
  </g>
</svg>
